PathFileType	4	(X/Y/Z)	C:/Users/beibeiliu/ov580/test_trc/User3\sequence.25_training_dense_left.trc
DataRate	CameraRate	NumFrames	NumMarkers	Units	OrigDataRate	OrigDataStartFrame	OrigNumFrames
120	120	23	19	mm	120	1	75
Frame#	Time	ThumbCMC			ThumbMCP			ThumbIP			ThumbTip			IndexMCP			IndexPIP			IndexTip			MiddleMCP			MiddlePIP			MiddleTip			RingMCP			RingPIP			RingTip			PinkyMCP			PinkyPIP			PinkyTip			BackHand1			BackHand2			BackHand3	
		X0	Y0	Z0	X1	Y1	Z1	X2	Y2	Z2	X3	Y3	Z3	X4	Y4	Z4	X5	Y5	Z5	X6	Y6	Z6	X7	Y7	Z7	X8	Y8	Z8	X9	Y9	Z9	X10	Y10	Z10	X11	Y11	Z11	X12	Y12	Z12	X13	Y13	Z13	X14	Y14	Z14	X15	Y15	Z15	X16	Y16	Z16	X17	Y17	Z17	X18	Y18	Z18	
0	0	-109.468	12.2788	8.34844	-100.508	-4.8159	-21.7509	-95.9576	-16.392	-51.4123	-112.206	-28.3186	-75.228	-135.126	32.1359	-62.2264	-124.424	11.8477	-85.752	-109.896	-19.2296	-72.4511	-151.097	23.7357	-68.4439	-141.289	-2.44603	-87.7121	-129.204	-32.3199	-65.8969	-166.056	13.6488	-63.8456	-158.958	-9.39305	-79.6204	-144.756	-34.0895	-61.1548	-183.522	1.70861	-51.5432	-175.043	-15.5514	-66.9361	-154.663	-36.36	-58.2328	-174.527	30.5698	-8.60667	-173.929	23.2872	26.5606	-143.843	38.601	7.88945	
1	0.00833333	-115.82	8.81033	8.12027	-104.197	-6.51393	-21.4261	-105.098	-17.8779	-48.2428	-116.363	-31.2034	-71.8247	-141.322	27.5956	-61.3698	-129.976	4.1717	-84.5693	-115.837	-23.3893	-70.4316	-155.778	19.0723	-68.6202	-146.308	-3.21945	-86.1063	-133.139	-35.541	-64.5272	-175.557	8.22915	-60.0074	-162.242	-13.135	-77.1791	-145.547	-39.5214	-55.8722	-186.589	-1.85276	-44.932	-175.876	-23.4165	-66.1465	-160.373	-42.8928	-58.223	-181.089	22.3746	-2.69752	-178.221	19.517	26.4951	-148.287	34.0032	8.14133	
2	0.0166667	-119.481	3.53216	12.262	-108.816	-10.5565	-16.281	-106.703	-22.5744	-50.1791	-117.788	-33.9479	-65.6381	-142.187	23.1868	-62.5402	-135.886	2.02876	-81.3865	-116.973	-22.8139	-72.123	-163.558	14.8545	-62.8665	-150.634	-8.29735	-83.5243	-134.05	-37.5481	-64.8356	-175.914	5.86773	-55.0588	-164.515	-21.0689	-74.3598	-150.426	-43.5359	-55.0976	-191.822	-7.27786	-43.7749	-181.214	-26.7046	-63.5054	-163.37	-45.3743	-55.0109	-186.327	16.0792	0.0937432	-180.955	11.4688	28.8837	-153.965	26.8457	13.7128	
3	0.025	-120.946	1.76846	9.18326	-114.012	-13.5089	-17.4465	-111.237	-24.8926	-46.3411	-119.302	-37.1541	-64.2579	-149.527	18.4627	-59.0242	-135.552	-2.15398	-80.9954	-125.923	-26.7532	-71.2011	-166.476	12.2231	-59.1367	-154.525	-13.4277	-81.7504	-139.571	-41.7613	-62.9557	-179.829	1.48657	-55.1033	-170.218	-23.5598	-73.1172	-154.126	-44.1666	-59.4679	-191.569	-10.6635	-38.579	-182.21	-26.407	-62.4025	-165.855	-49.9788	-56.7049	-188.566	10.9044	-0.241268	-188.207	4.76896	30.6188	-157.446	23.9742	13.314	
4	0.0333333	-126.259	-0.72856	14.1186	-115.307	-14.0689	-18.8245	-109.993	-25.67	-45.4371	-120.955	-38.6787	-66.7191	-149.922	20.7864	-55.7152	-141.137	1.08767	-79.6277	-123.583	-25.6468	-71.7136	-167.007	11.2881	-63.7079	-153.648	-14.7272	-80.6747	-139.505	-41.1489	-64.9138	-186.262	-2.71114	-52.7307	-171.124	-24.7047	-73.0195	-155.8	-47.2118	-55.0784	-197.847	-15.0301	-40.6385	-184.86	-26.1985	-60.1879	-167.788	-51.2063	-56.4906	-192.047	10.0319	2.20002	-185.45	6.5111	30.5962	-160.018	21.5395	14.1489	
5	0.0416667	-126.993	0.509485	9.9631	-116.456	-13.0812	-17.8518	-114.159	-24.1531	-48.0791	-122.213	-37.9213	-67.9244	-149.687	22.0231	-54.6667	-142.95	-2.84129	-79.3407	-125.401	-25.0423	-71.7092	-170.906	9.54166	-62.0947	-156.702	-11.612	-81.6006	-143.343	-42.0899	-64.8504	-187.665	-2.22574	-52.6999	-175	-25.4176	-72.2719	-159.557	-46.6566	-57.8869	-197.376	-12.447	-39.7624	-187.824	-24.8508	-59.8423	-170.561	-49.812	-55.3761	-188.93	11.195	5.5207	-187.258	4.70786	32.5631	-157.256	23.1508	15.356	
6	0.05	-125.018	2.34929	9.59256	-114.536	-12.0699	-19.7655	-113.793	-24.1696	-43.9604	-123.221	-35.441	-65.7218	-153.969	19.1219	-59.0599	-142.02	2.93383	-79.5	-128.124	-25.1182	-71.9856	-172.092	10.0221	-63.1513	-158.158	-8.3804	-82.149	-141.197	-42.0872	-65.6385	-184.181	1.70712	-51.3104	-175.88	-21.4339	-72.8465	-154.775	-45.7455	-57.2587	-199.63	-12.8876	-41.1364	-186.239	-28.9828	-62.01	-169.629	-49.611	-55.9613	-187.495	10.8707	4.59545	-188.885	4.80638	33.5761	-161.065	23.7964	16.6159	
7	0.0583333	-124.592	2.56448	14.0922	-114.302	-11.7423	-16.8352	-111.558	-22.0851	-49.135	-120.98	-35.2236	-68.5854	-153.94	20.9909	-58.4862	-140.425	-0.692883	-80.4543	-129.105	-25.4334	-72.4093	-170.962	11.1536	-63.1262	-159.153	-9.46891	-81.9045	-137.708	-41.1416	-63.2671	-184.277	2.02636	-52.9362	-177.557	-23.1453	-72.2114	-159.096	-44.9357	-58.0442	-199.31	-11.7544	-43.8591	-187.981	-26.0982	-61.2558	-167.193	-50.0928	-53.7721	-192.843	9.13017	4.66847	-189.286	5.44918	31.4963	-159.229	26.3664	15.5502	
8	0.0666667	-125.88	1.10698	11.5067	-116.773	-12.4571	-18.9277	-115.486	-22.6411	-45.7526	-126.094	-35.0705	-68.8843	-154.068	21.2756	-55.8556	-141.861	-1.95655	-80.7607	-123.41	-26.4444	-69.6271	-171.792	12.2083	-59.6292	-160.513	-14.3325	-81.6158	-141.279	-40.8402	-64.0459	-186.545	-0.282744	-54.1499	-177.581	-23.7442	-71.9956	-155.223	-44.3505	-55.0667	-200.675	-13.494	-38.9306	-188.918	-26.8658	-60.5415	-168.967	-51.0409	-53.8214	-190.905	9.1158	3.23738	-189.361	2.62843	34.6344	-160.255	22.1747	16.3966	
9	0.075	-128.316	-0.894332	13.818	-113.674	-13.9835	-18.951	-110.636	-23.9075	-45.3094	-125.11	-36.8294	-64.2707	-153.643	19.7532	-56.6757	-146.638	0.295467	-79.6224	-128.388	-27.5812	-72.8738	-170.903	11.0326	-61.5945	-158.176	-11.7798	-82.0831	-141.479	-40.7038	-64.1349	-184.385	-0.194432	-54.9308	-179.485	-24.9167	-71.8906	-157.788	-45.8844	-54.3859	-197.311	-13.2242	-37.0521	-188.025	-31.2544	-60.407	-168.943	-50.4064	-52.3918	-194.205	6.68856	4.4889	-190.772	2.92708	31.3373	-160.207	21.4335	17.5944	
10	0.0833333	-126.545	0.655274	11.5799	-115.303	-13.7236	-17.6381	-112.88	-24.8296	-46.3329	-124.587	-37.765	-68.0677	-155.059	17.3971	-57.1556	-143.138	0.00786675	-79.6022	-128.077	-29.6715	-71.4339	-171.396	9.45601	-63.0366	-158.887	-11.7987	-81.023	-144.756	-42.6359	-63.5107	-189.44	-4.25127	-52.5217	-178.626	-25.1676	-71.6119	-156.065	-46.9109	-53.7856	-197.243	-13.7503	-37.3353	-188.136	-30.6848	-60.7727	-169.369	-50.4728	-52.3132	-193.782	6.68712	4.82656	-189.627	2.56335	30.1252	-162.455	21.5823	16.657	
11	0.0916667	-128.909	-2.026	14.6158	-112.172	-14.1998	-16.6573	-110.141	-24.6098	-45.4894	-124.728	-37.0339	-64.3389	-153.791	18.1059	-57.7419	-142.311	-2.04355	-80.0737	-129.169	-26.8509	-73.8988	-171.67	10.1845	-60.0007	-160.278	-14.367	-81.7433	-141.848	-44.5312	-62.1103	-188.384	-2.97243	-50.5647	-176.461	-22.4621	-72.1024	-159.487	-47.2509	-56.9688	-195.798	-12.5867	-42.1916	-188.826	-27.7189	-59.9017	-169.671	-53.2102	-53.1019	-194.336	8.41795	3.3522	-191.742	1.94289	32.5359	-159.018	21.2341	14.4744	
12	0.1	-130.446	0.0509755	10.6007	-118.261	-14.369	-16.6035	-110.057	-24.7318	-45.795	-121.792	-36.6931	-67.6203	-154.066	18.5613	-58.9203	-141.723	0.338398	-80.7169	-128.123	-24.6036	-75.4185	-170.272	10.7249	-62.0329	-159.28	-14.6213	-81.9778	-143.382	-42.4543	-66.6596	-190.114	-3.16353	-52.486	-174.081	-23.3419	-73.4737	-157.883	-46.3636	-57.7961	-199.585	-15.0251	-38.5891	-190.661	-28.055	-60.403	-167.811	-51.7237	-56.2726	-190.148	8.40066	1.17069	-189.022	1.54406	34.1032	-161.065	19.4583	16.7535	
13	0.108333	-128.448	-1.46304	14.505	-114.624	-12.8574	-18.4276	-111.088	-22.0542	-47.607	-122.928	-35.4099	-68.5062	-157.522	18.5272	-54.2122	-145.43	3.294	-79.9891	-126.656	-26.0645	-75.413	-172.167	11.0892	-63.3229	-157.749	-11.2955	-82.6645	-140.807	-39.5565	-69.5001	-187.602	-1.15707	-54.512	-177.712	-19.8663	-73.5057	-157.953	-43.9451	-61.7451	-196.324	-12.2423	-42.6166	-186.78	-30.2933	-62.6466	-167.209	-48.9772	-58.9749	-191.7	6.73362	1.44579	-191.044	2.04216	32.1312	-162.972	20.5368	19.9153	
14	0.116667	-128.179	0.624512	14.1988	-115.541	-11.2941	-15.0946	-110.934	-20.1324	-45.5841	-123.516	-31.5139	-66.8524	-158.352	18.7051	-56.2389	-146.499	2.98912	-79.2326	-127.714	-23.1062	-77.8045	-172.232	13.5485	-59.0986	-158.581	-6.56638	-82.7553	-140.589	-41.4736	-70.0797	-187.997	-0.0540844	-53.0544	-177.086	-19.7878	-74.4333	-157.923	-41.3522	-64.6862	-200.289	-14.5068	-43.3077	-191.057	-26.72	-62.6368	-167.344	-50.7912	-62.3178	-196.432	4.36425	5.29037	-190.133	-1.26445	31.4156	-165.499	19.2884	18.0828	
15	0.125	-129.475	-0.328773	14.0982	-118.827	-10.6798	-17.8929	-114.894	-17.6721	-50.1768	-123.131	-30.4136	-67.5158	-156.415	21.0846	-54.2115	-142.663	5.93353	-78.824	-128.032	-24.7668	-80.4787	-175.892	13.3893	-57.6923	-157.388	-6.30886	-83.8459	-140.708	-36.6924	-76.6404	-189.957	0.0651842	-51.1548	-177.199	-16.5457	-73.8887	-158.912	-42.5171	-65.5404	-201.246	-14.7893	-42.2377	-188.787	-25.0558	-62.577	-167.112	-46.121	-64.3755	-194.856	4.96376	2.73882	-191.533	-2.24832	32.7551	-165.724	21.7908	17.0365	
16	0.133333	-129.547	-0.38031	16.1258	-119.001	-9.82041	-20.4643	-116.851	-17.3939	-46.9932	-128.208	-27.7252	-70.8447	-156.674	21.108	-51.5402	-143.79	1.91938	-77.6926	-128.396	-21.3997	-81.9645	-176.66	12.1931	-55.7261	-162.146	-6.3287	-82.7865	-142.532	-36.4594	-78.6429	-186.54	1.02055	-51.9827	-177.562	-19.5379	-74.5866	-156.187	-45.3798	-65.1881	-199.097	-14.4906	-42.7952	-189.467	-25.1175	-62.2252	-169.648	-45.0312	-64.9582	-195.688	3.83304	7.43124	-192.402	-0.627664	31.979	-167.847	20.2946	17.3021	
17	0.141667	-128.993	-0.20923	14.863	-119.697	-11.6728	-14.753	-116.152	-18.1364	-44.7806	-124.601	-27.7722	-69.7002	-154.1	22.3959	-50.6111	-143.897	1.95314	-77.0785	-128.428	-20.4197	-81.7111	-174.667	12.1646	-59.6275	-160.084	-4.48094	-81.5159	-141.189	-40.218	-76.8235	-189.518	-0.294157	-52.2344	-179.55	-17.1827	-74.1846	-154.777	-40.7543	-67.5252	-198.429	-13.3383	-39.0818	-188.825	-26.5893	-63.6448	-172.171	-43.6838	-66.924	-194.866	5.59894	5.41953	-194.342	-3.11299	31.9855	-168.7	17.8305	19.6088	
18	0.15	-129.002	-0.0598743	14.6399	-120.457	-11.4942	-12.8344	-113.931	-17.3146	-47.2334	-123.721	-26.4146	-66.2406	-155.777	21.2652	-48.7988	-144.551	6.31516	-76.8885	-131.269	-20.0782	-83.2695	-174.852	14.3104	-55.8355	-161.732	-7.62593	-82.9368	-144.434	-34.9049	-80.5043	-189.743	0.910867	-49.2246	-179.992	-17.8718	-75.0144	-156.456	-43.2468	-70.4118	-199.201	-14.0348	-38.6101	-187.64	-23.1327	-63.321	-172.102	-39.8321	-70.2666	-193.607	4.29083	7.66391	-194.782	-3.74352	35.8305	-168.121	14.7018	20.7322	
19	0.158333	-130.92	-2.6696	16.0927	-115.246	-11.2759	-13.0887	-109.746	-17.0985	-42.0569	-111.828	-25.9015	-66.0745	-159.532	19.9025	-53.1401	-149.198	9.07157	-76.449	-134.073	-16.8725	-87.0006	-175.973	13.9804	-59.1224	-160.631	-1.0482	-83.2192	-145.118	-32.5922	-85.3964	-191.577	-0.0678154	-53.1829	-181.455	-12.4641	-74.9158	-159.417	-40.0133	-77.6221	-201.672	-14.8236	-37.612	-193.931	-22.1568	-62.8129	-177.108	-40.4644	-74.6906	-196.097	5.36479	5.52775	-191.919	-6.57573	36.2781	-163.935	17.2304	21.9758	
20	0.166667	-132.529	-5.2753	18.6452	-115.633	-12.6563	-14.5379	-106.975	-18.1634	-43.1696	-106.756	-27.6048	-66.2899	-160.149	19.3633	-48.7318	-151.978	5.69357	-79.56	-137.477	-16.6519	-93.0168	-179.197	11.1966	-56.094	-164.309	0.626281	-84.2296	-147.085	-31.7922	-93.1508	-192.305	-1.6298	-50.1287	-183.316	-15.9184	-79.1621	-164.029	-36.7208	-84.8838	-201.464	-16.4016	-38.3691	-195.21	-22.932	-62.6277	-179.715	-35.7111	-78.642	-195.656	0.782231	5.39877	-193.49	-6.65253	32.2787	-169.062	14.6682	17.9925	
21	0.175	-131.454	-5.43389	15.579	-116.171	-16.805	-8.46518	-104.766	-22.5232	-39.2509	-104.526	-32.3976	-58.3576	-158.752	15.8567	-51.8934	-149.908	7.12965	-78.9561	-139.176	-12.5657	-95.7311	-174.956	11.647	-59.8258	-166.551	-3.69861	-86.799	-150.199	-29.4762	-99.5032	-191.537	-3.58314	-49.4716	-183.348	-15.1641	-79.3778	-169.225	-37.61	-90.8295	-199.652	-17.5439	-40.9462	-193.343	-23.9993	-64.721	-184.78	-36.5924	-80.4465	-196.001	-0.221156	4.05256	-194.906	-9.52893	35.0065	-167.795	11.6774	19.0766	
22	0.183333	-129.712	-9.98286	18.7297	-115.079	-18.9712	-12.0824	-103.259	-26.5192	-39.5324	-102.251	-37.1327	-62.9308	-154.422	14.6557	-49.1429	-148.768	3.91464	-78.657	-139.36	-15.4984	-95.1952	-173.731	8.31755	-57.6784	-170.151	-4.35743	-84.3693	-152.573	-34.7725	-103.152	-187.286	-5.23121	-48.0945	-185.777	-16.9717	-77.7215	-168.366	-37.0908	-92.4518	-201.516	-21.5027	-40.0975	-194.786	-28.5166	-64.5747	-187.732	-40.1226	-82.2598	-197.248	-3.25356	4.38371	-195.497	-9.15534	36.3193	-165.641	10.7788	19.41	
